<svg width="50" height="50" viewBox="0 0 50 50" fill="none" xmlns="http://www.w3.org/2000/svg">
<rect x="0.5" y="0.5" width="49" height="49" rx="24.5" stroke="#637381"/>
<path fill-rule="evenodd" clip-rule="evenodd" d="M27.6905 24.9972L20.2975 32.2461L20.2884 32.2558C19.9117 32.661 19.9096 33.2936 20.3498 33.6994C20.5538 33.8875 20.8571 34 21.1348 34C21.4829 34 21.7479 33.858 21.9496 33.672L21.9566 33.6655L29.4555 26.2853L29.4564 26.2845C30.1872 25.5701 30.1718 24.4194 29.4666 23.6928L29.4616 23.6876L21.9562 16.3285L21.9496 16.3225C21.551 15.9549 20.8379 15.8449 20.3497 16.295C19.9532 16.6606 19.8331 17.313 20.3123 17.7629L27.6905 24.9972Z" fill="#637381"/>
</svg>
