<svg width="50" height="50" viewBox="0 0 50 50" fill="none" xmlns="http://www.w3.org/2000/svg">
<rect x="49.5" y="49.5" width="49" height="49" rx="24.5" transform="rotate(-180 49.5 49.5)" stroke="#637381"/>
<path fill-rule="evenodd" clip-rule="evenodd" d="M22.3095 25.0028L29.7025 17.7539L29.7116 17.7442C30.0883 17.339 30.0904 16.7064 29.6503 16.3006C29.4462 16.1125 29.1429 16 28.8652 16C28.5171 16 28.2521 16.142 28.0504 16.328L28.0434 16.3345L20.5445 23.7147L20.5436 23.7155C19.8128 24.4299 19.8282 25.5806 20.5334 26.3072L20.5384 26.3124L28.0438 33.6715L28.0504 33.6775C28.449 34.0451 29.1621 34.1551 29.6503 33.705C30.0468 33.3394 30.1669 32.687 29.6877 32.2371L22.3095 25.0028Z" fill="#637381"/>
</svg>
