<svg width="18" height="18" viewBox="0 0 18 18" fill="none" xmlns="http://www.w3.org/2000/svg">
<path d="M16.4832 0.947266H1.54964C0.843892 0.947266 0.279297 1.49735 0.279297 2.18495V16.7621C0.279297 17.4222 0.843892 17.9998 1.54964 17.9998H16.4267C17.1325 17.9998 17.6971 17.4497 17.6971 16.7621V2.15745C17.7535 1.49735 17.1889 0.947266 16.4832 0.947266ZM5.44534 15.4419H2.87644V7.32822H5.44534V15.4419ZM4.14677 6.20055C3.29988 6.20055 2.6506 5.54045 2.6506 4.74283C2.6506 3.94521 3.32811 3.28511 4.14677 3.28511C4.96544 3.28511 5.64295 3.94521 5.64295 4.74283C5.64295 5.54045 5.0219 6.20055 4.14677 6.20055ZM15.1846 15.4419H12.6157V11.5088C12.6157 10.5737 12.5875 9.33602 11.2607 9.33602C9.90565 9.33602 9.70804 10.3812 9.70804 11.4263V15.4419H7.13913V7.32822H9.65158V8.45588H9.67981C10.0468 7.79579 10.8655 7.13569 12.1358 7.13569C14.7612 7.13569 15.2411 8.78594 15.2411 11.0413V15.4419H15.1846Z" fill="#3056D3"/>
</svg>
