<svg width="19" height="15" viewBox="0 0 19 15" fill="none" xmlns="http://www.w3.org/2000/svg">
<path d="M16.162 3.17859L17.2298 1.93274C17.5389 1.59532 17.6232 1.33577 17.6513 1.20599C16.8083 1.67319 16.0215 1.82892 15.5157 1.82892H15.319L15.2066 1.7251C14.5322 1.18004 13.6893 0.894531 12.7901 0.894531C10.8231 0.894531 9.27764 2.39993 9.27764 4.13893C9.27764 4.24275 9.27764 4.39848 9.30574 4.5023L9.39004 5.0214L8.79995 4.99545C5.20322 4.89163 2.25277 2.03656 1.77508 1.54341C0.988294 2.84117 1.43789 4.08702 1.91558 4.86567L2.87096 6.31916L1.35359 5.54051C1.38169 6.63062 1.83128 7.48714 2.70236 8.11007L3.46105 8.62917L2.70236 8.91468C3.18005 10.2384 4.24783 10.7834 5.03462 10.9911L6.0743 11.2506L5.09082 11.8736C3.51725 12.9118 1.55028 12.8339 0.679199 12.756C2.44947 13.8981 4.55693 14.1576 6.0181 14.1576C7.11398 14.1576 7.92887 14.0538 8.12556 13.9759C15.9934 12.2629 16.3587 5.7741 16.3587 4.47634V4.29466L16.5273 4.19084C17.4827 3.36027 17.8761 2.91903 18.1009 2.65948C18.0166 2.68544 17.9042 2.73735 17.7918 2.7633L16.162 3.17859Z" fill="#CACBCF"/>
</svg>
